<?xml version="1.0" encoding="UTF-8"?>
<svg id="Laag_1" data-name="Laag 1" xmlns="http://www.w3.org/2000/svg" viewBox="0 0 319.73 71.45">
  <defs>
    <style>
      .cls-1 {
        fill: #fff;
      }
    </style>
  </defs>
  <g>
    <rect width="56.69" height="56.69"/>
    <polygon class="cls-1" points="24.07 16.14 28.35 11.86 32.63 16.14 35 13.77 30.72 9.49 35 5.21 32.63 2.84 28.35 7.12 24.07 2.84 21.7 5.21 25.98 9.49 21.7 13.77 24.07 16.14"/>
    <polygon class="cls-1" points="24.07 31.9 28.35 27.62 32.63 31.9 35 29.53 30.72 25.25 35 20.97 32.63 18.6 28.35 22.88 24.07 18.6 21.7 20.97 25.98 25.25 21.7 29.53 24.07 31.9"/>
    <polygon class="cls-1" points="24.07 53.83 28.35 49.55 32.63 53.83 35 51.46 30.72 47.18 35 42.9 32.63 40.53 28.35 44.81 24.07 40.53 21.7 42.9 25.98 47.18 21.7 51.46 24.07 53.83"/>
    <path class="cls-1" d="M41.23,16.08l-4.93.23s.7,5.2.41,10.45c-.29,5.02-1.08,5.9-1.08,5.9-1.11,2.09-4.56,2.6-6.32,2.73-1.77.14-2.56.04-2.56.04,0,0-5.08-.2-6.22-2.56-.65-1.35-.79-4-.79-4,0,0-.03-12.41-.08-12.69-.03-.15-1.03.11-2.19.1-.94,0-2.32-.06-2.32-.06l.41,9.11-.06,5.39s0,2.89.74,4.04c1.25,1.96,2.64,2.66,3.43,3.03.79.38,2.04.75,3.44,1.03,1.39.28,3.72.42,6.78-.36,3.07-.79,4.42-2.18,4.42-2.18l2.32-2.18v5.16s4.87-1.44,4.87-1.44c0,0-.64-4.09-.64-11.06,0-6.97.34-10.69.34-10.69"/>
  </g>
  <path d="M75.09,5.29c0-3.09-1.88-3.09-4.03-3.09l-.19-.16v-.66c0-.43.27-.47.7-.47,1.02,0,3.52.2,5.36.2,1.95,0,3.94-.2,5.9-.2l.12.12v1.01l-.19.16h-.47c-2.54,0-3.68.27-3.68,3.21v11.34c0,5.63,1.1,10.05,7.82,10.05s9.27-3.37,9.27-9.97V6.66c0-4.46,0-4.15-3.44-4.46l-.16-.31v-.74l.12-.23c.7,0,1.48.2,4.42.2,1.65,0,3.72-.2,4.97-.2l.16.23v.82l-.24.24c-2.85,0-3.87.16-3.87,2.11v13.96c0,7.16-4.18,10.79-11.3,10.79-5.67,0-11.26-1.99-11.26-8.52V5.29Z"/>
  <path d="M103.99,11.39c0-.59-.03-.74-.15-.97-.26-.5-1.55-1.55-2.05-1.59l-1.55-.09c-.12,0-.15-.29-.15-.52,0-.15,0-.38.15-.38.91,0,1.61-.06,2.34-.06,1.35,0,3.49.12,4.02.18l8.88,10.72c1.35,1.64,2.67,3.16,4.78,5.28h.12v-12.89c0-1.93-.7-2.23-1.64-2.26l-1.26-.06c-.12,0-.18-.29-.18-.49,0-.18.09-.47.27-.47.64,0,2.17.15,3.6.15,1.32,0,2.73-.15,3.55-.15.15,0,.18.12.18.24v.55c0,.14-.06.18-.26.18h-.76c-2.02,0-2.02,1.03-2.02,3.52v16.97h-.7l-15.82-18.08v13.45c0,2.52.35,2.81,2.87,2.9.12,0,.21.26.21.49s-.03.47-.12.47c-.56,0-2.43-.15-3.66-.15-1.44,0-2.08.15-3.43.15-.18,0-.21-.2-.21-.58,0-.27.03-.38.38-.38,1.23,0,2.63-.29,2.63-1.79v-14.33Z"/>
  <path d="M132.57,23.05c0,4.28.09,4.3,2.96,4.46l.15.21v.55c0,.18-.44.2-.7.2-.41,0-2.37-.15-3.57-.15-1.41,0-2.84.15-4.37.15-.12-.06-.15-.23-.15-.53.03-.38.09-.44.94-.44,2.02,0,2.11-.44,2.11-2.67v-14c0-1.67-.5-2.08-2.96-2.08l-.09-.14-.06-.47c.03-.32.29-.35.47-.35.79,0,1.73.15,3.72.15,1.46,0,3.23-.15,4.39-.15l.15.21v.52l-.12.18-.79.06c-1.17.09-2.08.21-2.08,1.55v12.75Z"/>
  <path d="M139.61,9.74c-.32-.79-1.49-1-2.32-1l-.18-.14v-.76l.32-.06c1.23,0,3.02.15,3.66.15,1.34,0,2.66-.15,4.01-.15l.09.09-.09.82-1.38.12c-.47.02-1,.2-1,.64,0,.24.15.62.26.88l3.37,8.79,1.91,4.36c.2.44.23.53.32.53.06,0,.14-.12.26-.46l4.19-11.11c.47-1.26.82-2.35.79-2.7-.03-.5-.18-.76-1.02-.84l-1.52-.15-.18-.09v-.91c1.14,0,2.28.17,3.43.17.91,0,2.84-.17,3.05-.17l.23.12v.67l-.26.2-.91.06c-.59.02-.82.32-1.23,1.35-2.78,6.71-3.46,8.82-5.68,14.47l-1.49,3.81c-.14.41-.2.44-.41.44-.27,0-.32-.09-.38-.2l-7.85-18.93Z"/>
  <path d="M162.53,10.77c0-1.9-1.44-2.11-3.14-2.11-.12,0-.12-.15-.12-.27v-.32c0-.26.5-.29,1.52-.29,1.17,0,2.49.15,3.72.15,1.17,0,2.34-.15,3.52-.15h6.18c.23,0,.26.27.26.59v3.58c0,.12-.06.23-.2.23-.23,0-.7.03-.73-.32l-.09-.91c-.18-1.87-1.47-2.2-3.11-2.2h-3.02c-1.64,0-2.17.35-2.17,2.58v5.3c0,.09.18.23.23.23l3.46-.12c1.76-.06,2.26-.62,2.7-2.17.06-.17.15-.23.47-.23.21,0,.36.03.36.18,0,.62-.18,1.96-.18,2.93,0,1.58.18,2.43.18,2.92,0,.18-.3.36-.47.36-.23,0-.44-.09-.5-.38-.15-.79-.15-1.35-.29-1.76-.15-.44-.5-.64-1.38-.67l-4.16-.09c-.41,0-.41.15-.41.35v6.98c0,2.11,1.56,2.16,3.58,2.16h1.58c1.55,0,2.64-.03,3.37-.46.64-.39,1.55-2.17,1.87-2.9.38,0,.88.09.88.29,0,.09-.08.32-.15.47l-.82,2.96c-.23.79-.38.79-.76.79-3.16,0-6.27-.15-10.52-.15-.97,0-3.43.15-4.92.15-.09,0-.18-.29-.18-.47,0-.23.06-.49.18-.49,2.56-.12,3.25-.38,3.25-3.08v-13.66Z"/>
  <path d="M181.85,10.94c0-1.46-.06-2.2-1.9-2.2h-1.2c-.18,0-.2-.32-.2-.56,0-.14.09-.41.2-.41,1.7,0,3.43.09,5.13.09,1.35,0,2.67-.09,4.01-.09,2.99,0,5.92,1.99,5.92,5.07,0,2.66-2.43,4.45-4.72,4.81v.06c1.14.27,2.34,2.41,2.64,2.87l3.22,4.93c1.03,1.55,1.7,1.84,3.46,1.93l.18.17v.55c0,.27-.21.29-.32.29-.61,0-1.52-.09-1.96-.09-.7,0-1.41.09-2.11.09s-1.99-1.96-3.72-5.04c-1.9-3.37-3.02-5.21-4.95-5.21-.24,0-.59,0-1.03.06v7.19c0,1.05,0,2.05,1.47,2.05,1.11,0,1.61,0,1.61.23,0,.56-.09.73-.53.73-1.52,0-2.78-.15-4.04-.15-.5,0-3.75.15-4.16.15-.18,0-.23-.38-.23-.62,0-.26.12-.32.71-.35,2.02-.09,2.54-.38,2.54-2.4v-14.15ZM184.49,17.19c.38.03.73.06,1.11.06,2.35,0,5.28-.82,5.28-4.28,0-2.58-1.76-4.25-4.34-4.25-1.99,0-2.05.47-2.05,1.35v7.12Z"/>
  <path d="M203.22,17.8c-2.11-1.26-2.96-2.43-2.96-4.72,0-3.66,2.99-5.71,6.94-5.71,1.11,0,2.7.38,3.69.82l.2,3.66v.15c0,.15-.29.21-.7.21-.38,0-.44-.18-.47-.47-.21-1.96-1.61-3.22-3.7-3.22s-3.54,1.4-3.54,3.29c0,2.11,1.28,2.93,4.21,4.48,2.9,1.53,5.42,2.87,5.42,6.54,0,3.98-3.6,6.06-7.27,6.06-1.2,0-3.2-.38-4.31-.85-.23-.12-.32-.5-.41-1.14l-.35-2.76c0-.18.59-.18.76-.18.09,0,.18.06.23.26.67,2.23,2.2,3.52,4.54,3.52,2.05,0,4.01-1.79,4.01-3.78s-1.08-3.05-2.61-3.96l-3.72-2.2Z"/>
  <path d="M220.51,23.05c0,4.28.09,4.3,2.96,4.46l.15.21v.55c0,.18-.44.2-.71.2-.41,0-2.37-.15-3.57-.15-1.41,0-2.84.15-4.36.15-.12-.06-.15-.23-.15-.53.03-.38.09-.44.94-.44,2.03,0,2.11-.44,2.11-2.67v-14c0-1.67-.5-2.08-2.96-2.08l-.09-.14-.06-.47c.03-.32.29-.35.47-.35.79,0,1.73.15,3.72.15,1.47,0,3.22-.15,4.4-.15l.14.21v.52l-.11.18-.8.06c-1.17.09-2.08.21-2.08,1.55v12.75Z"/>
  <path d="M236.07,25.34c0,2.16,1.47,2.16,3.28,2.16l.18.15v.47c0,.35-.15.35-.62.35-.58,0-2.02-.15-4.07-.15-1.61,0-4.13.15-4.84.15-.06-.2-.12-.35-.12-.53,0-.09.03-.26.12-.32l.3-.12h.35c2.67,0,2.78-.91,2.78-3.34v-13.89l-.09-1.35h-3.93c-2.23,0-2.58,1.4-3.14,3.28-.06.17-.18.26-.35.26-.41,0-.68-.12-.68-.29,0-.5.36-3.22.36-5.54,0-.12.41-.12.82-.12.94,1.26,1.23,1.26,2.5,1.26h10.9c2.05,0,2.64-.62,3.37-1.52.2,0,.88,0,.88.26,0,.24-.58,2.64-.64,4.75,0,.32-.09.94-.23.94-.26,0-.94-.15-.94-.3l-.12-1.46c-.11-1.49-.82-1.52-2.02-1.52h-4.05v16.41Z"/>
  <path d="M254.12,19.15c0-.3-.03-.68-.35-1.15l-6.61-8.94c-.18-.27-.44-.41-1.12-.44l-1.12-.06-.18-.09v-.77l.18-.09h.35c.5,0,3.66.15,4.22.15.74,0,1.92-.15,2.89-.15.65,0,.94,0,.94.18v.36c0,.29-.09.44-.18.44l-1.71.06c-.42,0-.68.17-.68.5,0,.12.17.41.48.79l4.22,5.88c.24.33.5.62.8.89.56-.54,3.16-4.11,4.43-5.96.47-.68.74-1.24.74-1.48,0-.41-.24-.59-1.1-.62l-1.48-.06s0-.44,0-.56c0-.15.03-.32.18-.41,1.15.12,2.56.15,3.83.15.86,0,2.15-.15,2.54-.15l.18.12v.68l-.12.12-1.09.06c-.94.06-2.12,2.06-2.69,2.83l-4.89,6.7v6.93c0,.62.03,1.16.09,1.33.24.7,1,1.09,2.1,1.09h.8l.26.12v.82l-.15.03h-.44c-1.3,0-2.56-.15-3.86-.15s-2.69.15-4.01.15h-.42l-.24-.06v-.5c0-.17.06-.38.29-.41l1.39-.15c.86-.09,1.54-.38,1.54-1.86v-6.32Z"/>
  <path d="M129.15,59.94l-1.72,5.56c-.31,1.02-.47,1.92-.47,2.55,0,1.29,1.84,1.57,2.9,1.57.35,0,.43.23.43.75,0,.39-.04.55-.32.55-.9,0-3.76-.2-4.82-.2s-2.7.2-3.88.2c-.78,0-.78-.12-.78-.63v-.43c0-.19.35-.27,1.29-.35,2.04-.2,2.32-.59,3.06-2.75l7.76-22.57c.78-.66,1.6-1.57,2.58-1.88l9.84,24.81c.66,1.65,1.37,2.47,3.64,2.47.43,0,.51.47.51.9s-.27.44-.74.44c-.64,0-3.14-.2-4.67-.2s-3.14.08-4.7.2c-.59,0-.63-.12-.63-.67,0-.43.23-.63.79-.63.59,0,2.51-.12,2.51-1.06,0-.31-.16-.94-.71-2.31l-2.51-6.31h-9.37ZM137.82,58.41l-4.35-11.21h-.08l-3.72,11.21h8.15Z"/>
  <path d="M72.02,60.78c0-6.12,5.24-11.13,11.3-11.13s11.62,4.22,11.62,10.31-5.68,11.19-11.51,11.19-11.41-3.98-11.41-10.37M91.81,60.55c0-4.92-3.37-9.93-8.64-9.93s-8.02,4.25-8.02,9.19,3.04,10.2,8.49,10.2,8.17-4.42,8.17-9.46"/>
  <path d="M98.53,53.35c0-1.78-.29-2.17-2.02-2.17h-.5c-.52.03-.76-.06-.76-.24,0-.23,0-.73.33-.73h12c.99,0,1.99-.14,3.02-.14.17,0,.41.03.41.26l.12,3.3c0,.2.03.41.03.62,0,.12-.23.17-.53.17h-.44c-.06-.35-.12-.7-.2-1.02l-.26-.91c-.32-1.15-1.17-1.32-2.08-1.32h-4.1c-2.17,0-2.37.67-2.37,2.81v5.15h4.34c2.51,0,3.13-.7,3.13-2.31.29-.06.59-.15.79-.15.12,0,.18.06.18.21,0,.23-.12.67-.12,2.81,0,.85.12,2.37.12,3.02,0,.26-.2.38-.53.38-.23,0-.32-.26-.44-.73-.2-1.2-.79-2.26-3.28-2.26h-4.19v7.68c0,1.14.15,1.76,1.65,1.88l1.52.12c.14,0,.2.18.2.38,0,.24,0,.59-.32.59-2.2,0-3.13-.14-4.51-.14-1.2,0-3.37.14-4.15.14-.24,0-.24-.29-.24-.52,0-.18.03-.44.15-.44l1.29-.09c1.55-.12,1.78-.47,1.78-2.2v-14.15Z"/>
  <path d="M170.34,50.14c.91,0,1.85.08,2.79.08.74,0,1.5-.08,2.23-.08.44,0,.53.11.53.21v.47c0,.21-.09.35-.21.35-.2,0-.52-.06-.88-.06-1.71,0-1.71.85-1.71,2.77,0,1.67.33,12.67.33,14.29,0,.82.41,1.76,1.68,1.76,1.18,0,1.32.06,1.32.32,0,.35-.17.65-.26.65-1.56,0-2.79-.15-4.03-.15s-2.5.15-3.76.15c-.21,0-.23-.12-.23-.29v-.3c0-.29.27-.38,1.62-.38.59,0,1.12-.71,1.12-1.73,0-3.17-.12-10.02-.23-15.05-.12-.03-.09-.03-.09-.03-1.64,3.38-3.79,8.29-4.79,10.91l-2.77,7.26c-.02.09-.11.17-.26.17-.14,0-.26-.15-.35-.56-.17-.74-.44-1.44-.74-2.15l-5.55-13.52c-.21-.5-.38-.85-.49-.85-.12,0-.12.59-.12.91,0,2.32-.35,11.2-.35,12.64,0,1.26,0,2,2.59,2,.17,0,.2.14.2.5,0,.12-.03.47-.15.47-.41,0-1.85-.15-3.44-.15-1.67,0-3.32.15-3.73.15-.09,0-.18-.09-.18-.24v-.44c0-.26.24-.29.59-.29,2.41,0,2.76-.74,2.76-3.29,0-1.44.5-12.26.5-13.32,0-1.56-.76-2.2-3.4-2.2-.09,0-.15-.14-.15-.32v-.38c0-.15.09-.26.24-.26,1.12,0,2.18.15,3.35.15.73,0,1.5-.15,2.24-.15.21,0,.41.47.56.85l6.35,15.2h.14l6.77-16.05Z"/>
  <path d="M180.97,60.2c-2.12-1.27-2.98-2.44-2.98-4.73,0-3.68,3-5.73,6.97-5.73,1.12,0,2.71.38,3.71.82l.21,3.68v.15c0,.15-.3.2-.71.2-.38,0-.44-.17-.47-.47-.21-1.97-1.62-3.24-3.71-3.24s-3.55,1.41-3.55,3.3c0,2.11,1.29,2.94,4.23,4.5,2.91,1.53,5.44,2.88,5.44,6.55,0,4-3.62,6.08-7.29,6.08-1.21,0-3.21-.38-4.32-.85-.23-.12-.32-.5-.41-1.15l-.35-2.76c0-.18.59-.18.77-.18.09,0,.18.06.23.26.68,2.23,2.21,3.53,4.56,3.53,2.06,0,4.03-1.79,4.03-3.79s-1.08-3.06-2.61-3.97l-3.73-2.21Z"/>
  <path d="M202.38,67.83c0,2.18,1.47,2.18,3.29,2.18l.18.14v.47c0,.36-.15.36-.62.36-.59,0-2.02-.15-4.08-.15-1.62,0-4.15.15-4.85.15-.06-.21-.12-.36-.12-.53,0-.09.03-.27.12-.33l.3-.12h.35c2.68,0,2.79-.91,2.79-3.35v-13.94l-.09-1.35h-3.94c-2.24,0-2.59,1.41-3.15,3.29-.06.18-.18.27-.35.27-.42,0-.67-.12-.67-.29,0-.5.35-3.23.35-5.56,0-.12.41-.12.82-.12.94,1.27,1.23,1.27,2.5,1.27h10.93c2.06,0,2.65-.62,3.38-1.53.21,0,.88,0,.88.26,0,.24-.59,2.64-.65,4.76,0,.32-.09.94-.24.94-.27,0-.94-.14-.94-.29l-.12-1.47c-.12-1.5-.82-1.53-2.03-1.53h-4.06v16.46Z"/>
  <path d="M214.72,53.14c0-1.91-1.44-2.12-3.14-2.12-.12,0-.12-.15-.12-.26v-.32c0-.26.5-.29,1.53-.29,1.17,0,2.5.14,3.74.14,1.17,0,2.35-.14,3.52-.14h6.21c.23,0,.26.26.26.59v3.59c0,.12-.06.24-.21.24-.23,0-.7.03-.73-.32l-.09-.91c-.18-1.88-1.47-2.2-3.11-2.2h-3.03c-1.64,0-2.17.35-2.17,2.59v5.32c0,.09.18.24.24.24l3.46-.12c1.76-.06,2.27-.62,2.71-2.18.06-.18.15-.24.47-.24.2,0,.35.04.35.18,0,.62-.17,1.97-.17,2.94,0,1.59.17,2.44.17,2.94,0,.18-.29.35-.47.35-.23,0-.44-.09-.5-.38-.15-.79-.15-1.35-.29-1.76-.15-.44-.51-.65-1.39-.68l-4.17-.09c-.41,0-.41.14-.41.35v7c0,2.11,1.56,2.17,3.59,2.17h1.59c1.56,0,2.64-.03,3.38-.47.65-.38,1.56-2.17,1.88-2.91.39,0,.88.09.88.29,0,.09-.09.32-.14.47l-.82,2.97c-.23.79-.38.79-.76.79-3.18,0-6.29-.15-10.55-.15-.97,0-3.44.15-4.94.15-.09,0-.18-.29-.18-.47,0-.23.06-.5.18-.5,2.55-.12,3.26-.38,3.26-3.09v-13.7Z"/>
  <path d="M233.17,53.32c0-1.47-.06-2.2-1.91-2.2h-1.21c-.17,0-.2-.32-.2-.56,0-.15.09-.41.2-.41,1.71,0,3.45.09,5.15.09,1.35,0,2.68-.09,4.03-.09,3,0,5.94,2,5.94,5.08,0,2.67-2.44,4.47-4.73,4.82v.06c1.15.26,2.35,2.41,2.64,2.88l3.23,4.94c1.02,1.56,1.7,1.85,3.47,1.94l.17.17v.56c0,.26-.2.29-.32.29-.62,0-1.53-.09-1.97-.09-.71,0-1.41.09-2.11.09s-2-1.97-3.73-5.06c-1.91-3.38-3.03-5.23-4.97-5.23-.23,0-.59,0-1.02.06v7.2c0,1.06,0,2.06,1.47,2.06,1.11,0,1.62,0,1.62.23,0,.56-.09.74-.54.74-1.53,0-2.79-.15-4.05-.15-.5,0-3.76.15-4.17.15-.18,0-.24-.38-.24-.62,0-.26.12-.32.7-.35,2.03-.09,2.56-.38,2.56-2.41v-14.2ZM235.81,59.58c.38.03.74.06,1.12.06,2.35,0,5.29-.82,5.29-4.29,0-2.58-1.76-4.26-4.35-4.26-2,0-2.06.47-2.06,1.35v7.14Z"/>
  <path d="M254.25,53.38c0-1.12-.23-2.26-1.32-2.26-.35,0-1.29.12-1.85.12-.12,0-.12-.44-.12-.59,0-.18,0-.27.5-.38,1.97-.41,6.67-.74,9.2-.74,1.62,0,3.15.15,4.59.53,3.99,1.09,7.73,4.65,7.73,10.06,0,7.29-6.09,10.58-11.67,10.58-2.79,0-4.26-.12-5.73-.12s-2.94.09-4.41.12c-.12,0-.15-.26-.15-.47s.15-.5.26-.5c.94-.12,1.7-.18,2.24-.53.44-.29.73-.77.73-1.7v-14.11ZM256.9,66.5c0,3.23,3.32,3.23,4.61,3.23,4.03,0,8.32-3.32,8.32-9.47,0-5.23-2.82-7.82-4.85-8.99-1.41-.62-3.26-.76-4.52-.76-2.41,0-3.55.17-3.55,2.06v13.93Z"/>
  <path d="M278.2,62.67l-1.29,4.17c-.24.76-.35,1.44-.35,1.91,0,.97,1.38,1.18,2.18,1.18.26,0,.32.18.32.56,0,.29-.03.41-.23.41-.68,0-2.82-.15-3.62-.15s-2.03.15-2.91.15c-.59,0-.59-.09-.59-.47v-.32c0-.15.27-.21.97-.27,1.53-.15,1.73-.44,2.29-2.06l5.82-16.93c.59-.5,1.21-1.18,1.94-1.41l7.38,18.61c.5,1.23,1.03,1.85,2.73,1.85.33,0,.38.36.38.68s-.2.33-.56.33c-.47,0-2.35-.15-3.5-.15s-2.35.06-3.53.15c-.44,0-.47-.09-.47-.5,0-.32.18-.47.59-.47.44,0,1.89-.09,1.89-.8,0-.23-.12-.7-.53-1.73l-1.88-4.73h-7.03ZM284.7,61.52l-3.26-8.41h-.06l-2.78,8.41h6.11Z"/>
  <path d="M313.64,50.14c.91,0,1.85.08,2.79.08.73,0,1.5-.08,2.23-.08.44,0,.53.11.53.21v.47c0,.21-.09.35-.2.35-.21,0-.54-.06-.89-.06-1.7,0-1.7.85-1.7,2.77,0,1.67.32,12.67.32,14.29,0,.82.41,1.76,1.68,1.76,1.17,0,1.32.06,1.32.32,0,.35-.18.65-.27.65-1.56,0-2.79-.15-4.03-.15s-2.5.15-3.77.15c-.21,0-.23-.12-.23-.29v-.3c0-.29.26-.38,1.61-.38.59,0,1.12-.71,1.12-1.73,0-3.17-.11-10.02-.23-15.05-.12-.03-.09-.03-.09-.03-1.65,3.38-3.79,8.29-4.79,10.91l-2.76,7.26c-.03.09-.12.17-.27.17s-.26-.15-.36-.56c-.17-.74-.44-1.44-.73-2.15l-5.55-13.52c-.21-.5-.38-.85-.5-.85s-.12.59-.12.91c0,2.32-.36,11.2-.36,12.64,0,1.26,0,2,2.59,2,.18,0,.2.14.2.5,0,.12-.03.47-.15.47-.41,0-1.85-.15-3.44-.15-1.68,0-3.32.15-3.73.15-.09,0-.17-.09-.17-.24v-.44c0-.26.23-.29.58-.29,2.41,0,2.77-.74,2.77-3.29,0-1.44.5-12.26.5-13.32,0-1.56-.76-2.2-3.41-2.2-.08,0-.15-.14-.15-.32v-.38c0-.15.09-.26.24-.26,1.12,0,2.17.15,3.36.15.73,0,1.49-.15,2.23-.15.21,0,.41.47.56.85l6.35,15.2h.15l6.76-16.05Z"/>
</svg>